<svg width="338" height="80" viewBox="0 0 338 80" fill="none" xmlns="http://www.w3.org/2000/svg">
<path d="M329.631 47.8068C329.632 49.2796 330.827 50.4726 332.3 50.4714C333.773 50.4703 334.966 49.2755 334.965 47.8027C334.963 46.33 333.769 45.137 332.296 45.1381C330.823 45.1392 329.63 46.334 329.631 47.8068ZM1.36894 48.3767C2.47548 47.0523 3.58237 45.7609 4.68956 44.502L3.93865 43.8416C2.82577 45.107 1.71339 46.4048 0.601532 47.7356L1.36894 48.3767ZM11.3358 37.3335C13.7204 34.8991 16.106 32.6098 18.492 30.4597L17.8226 29.7168C15.4205 31.8813 13.02 34.1851 10.6215 36.6338L11.3358 37.3335ZM25.9279 24.2048C28.5978 22.1164 31.2678 20.195 33.9372 18.4324L33.3862 17.5979C30.6937 19.3757 28.0021 21.3128 25.3118 23.4171L25.9279 24.2048ZM42.3883 13.3725C45.3312 11.7884 48.2729 10.3871 51.2128 9.15804L50.8271 8.23542C47.8566 9.47726 44.8854 10.8926 41.9143 12.492L42.3883 13.3725ZM60.4095 5.86079C63.5957 4.90414 66.7793 4.13711 69.9594 3.54617L69.7767 2.563C66.5616 3.16045 63.3429 3.93593 60.122 4.90303L60.4095 5.86079ZM79.697 2.27175C82.9702 2.01878 86.2392 1.93857 89.503 2.01642L89.5268 1.0167C86.2307 0.93808 82.928 1.01906 79.6199 1.27472L79.697 2.27175ZM99.2929 2.71123C102.534 3.08969 105.77 3.61056 108.998 4.25931L109.195 3.27891C105.942 2.6251 102.679 2.09981 99.4088 1.71798L99.2929 2.71123ZM118.573 6.55007C121.716 7.41848 124.851 8.39542 127.977 9.46726L128.301 8.52131C125.157 7.44343 122.003 6.4604 118.839 5.58619L118.573 6.55007ZM137.195 12.9003C140.225 14.1148 143.246 15.4067 146.257 16.7632L146.667 15.8515C143.645 14.4897 140.612 13.1923 137.567 11.9721L137.195 12.9003ZM155.175 20.9744C158.117 22.4233 161.047 23.9225 163.965 25.46L164.431 24.5753C161.506 23.0341 158.568 21.5307 155.617 20.0773L155.175 20.9744ZM172.643 30.1524C175.522 31.7461 178.389 33.3656 181.242 34.9989L181.738 34.1311C178.882 32.4959 176.011 30.8739 173.127 29.2775L172.643 30.1524ZM189.792 39.9481C192.648 41.6156 195.488 43.2848 198.314 44.9436L198.82 44.0812C195.995 42.4227 193.153 40.7528 190.296 39.0845L189.792 39.9481ZM206.831 49.9282C209.701 51.5981 212.553 53.2436 215.387 54.8512L215.88 53.9814C213.051 52.3762 210.202 50.7326 207.334 49.0639L206.831 49.9282ZM224.045 59.663C226.99 61.2606 229.914 62.8007 232.815 64.2676L233.266 63.3752C230.375 61.9134 227.46 60.3778 224.522 58.784L224.045 59.663ZM241.739 68.5648C244.807 69.9614 247.848 71.2545 250.861 72.4242L251.223 71.492C248.23 70.3301 245.207 69.0445 242.153 67.6546L241.739 68.5648ZM260.225 75.6686C263.471 76.6469 266.681 77.4508 269.853 78.0536L270.039 77.0711C266.906 76.4757 263.73 75.6806 260.514 74.7112L260.225 75.6686ZM279.705 79.2552C283.06 79.4195 286.369 79.3133 289.628 78.902L289.503 77.9099C286.306 78.3133 283.056 78.4181 279.753 78.2564L279.705 79.2552ZM299.32 76.6953C302.397 75.6605 305.42 74.3031 308.388 72.5925L307.889 71.7262C304.978 73.404 302.015 74.734 299.001 75.7475L299.32 76.6953ZM316.521 66.8784C318.932 64.8614 321.3 62.5743 323.625 59.9991L322.882 59.329C320.587 61.872 318.252 64.1264 315.879 66.1115L316.521 66.8784ZM329.801 52.3253C330.781 50.9681 331.753 49.5529 332.716 48.0782L331.879 47.5313C330.924 48.9935 329.961 50.3957 328.99 51.7398L329.801 52.3253ZM326.965 47.8088C326.967 50.7543 329.356 53.1403 332.302 53.1381C335.247 53.1359 337.633 50.7462 337.631 47.8007C337.629 44.8552 335.239 42.4692 332.294 42.4714C329.348 42.4737 326.962 44.8633 326.965 47.8088ZM1.75264 48.6973C2.85653 47.3761 3.96067 46.0879 5.06501 44.8322L3.56319 43.5114C2.44747 44.78 1.33234 46.081 0.217829 47.415L1.75264 48.6973ZM11.693 37.6834C14.0706 35.2561 16.4487 32.974 18.8267 30.8312L17.4879 29.3454C15.0778 31.5171 12.6698 33.8281 10.2643 36.2839L11.693 37.6834ZM26.236 24.5986C28.8957 22.5182 31.5548 20.6046 34.2127 18.8497L33.1107 17.1806C30.4067 18.966 27.7042 20.911 25.0038 23.0233L26.236 24.5986ZM42.6253 13.8128C45.554 12.2362 48.4811 10.842 51.4056 9.61935L50.6342 7.77411C47.6485 9.02234 44.6625 10.4448 41.6773 12.0517L42.6253 13.8128ZM60.5533 6.33967C63.7221 5.38825 66.8882 4.62544 70.0507 4.03776L69.6853 2.07142C66.4527 2.67212 63.2166 3.45182 59.9782 4.42415L60.5533 6.33967ZM79.7355 2.77026C82.9913 2.51864 86.2434 2.43881 89.491 2.51628L89.5387 0.516845C86.2264 0.437837 82.9069 0.519196 79.5814 0.776206L79.7355 2.77026ZM99.2349 3.20786C102.462 3.58464 105.684 4.10329 108.9 4.74951L109.294 2.78871C106.028 2.13238 102.752 1.60486 99.4668 1.22135L99.2349 3.20786ZM118.439 7.03201C121.572 7.89753 124.697 8.87142 127.815 9.94024L128.464 8.04834C125.311 6.96743 122.147 5.98136 118.972 5.10424L118.439 7.03201ZM137.009 13.3644C140.032 14.5761 143.047 15.8651 146.051 17.219L146.873 15.3956C143.845 14.0313 140.805 12.731 137.753 11.508L137.009 13.3644ZM154.954 21.4229C157.891 22.8696 160.817 24.3667 163.732 25.9024L164.665 24.1329C161.736 22.5899 158.793 21.0844 155.838 19.6287L154.954 21.4229ZM172.401 30.5898C175.278 32.1821 178.142 33.8004 180.993 35.4329L181.987 33.6972C179.129 32.061 176.256 30.4379 173.369 28.84L172.401 30.5898ZM189.539 40.3799C192.395 42.0471 195.235 43.7158 198.06 45.3748L199.073 43.6501C196.248 41.9917 193.406 40.3214 190.548 38.6528L189.539 40.3799ZM206.579 50.3604C209.45 52.0308 212.304 53.6773 215.14 55.2861L216.127 53.5465C213.299 51.9425 210.452 50.2998 207.585 48.6317L206.579 50.3604ZM223.807 60.1025C226.755 61.702 229.684 63.2444 232.59 64.7138L233.492 62.929C230.606 61.4697 227.695 59.9364 224.76 58.3445L223.807 60.1025ZM241.531 69.0198C244.607 70.4199 247.658 71.7168 250.68 72.8903L251.404 71.0259C248.421 69.8679 245.406 68.5861 242.36 67.1995L241.531 69.0198ZM260.081 76.1474C263.341 77.13 266.568 77.9383 269.759 78.5448L270.133 76.5799C267.018 75.9881 263.86 75.1974 260.658 74.2325L260.081 76.1474ZM279.68 79.7546C283.062 79.9202 286.401 79.8133 289.691 79.3981L289.44 77.4138C286.275 77.8133 283.054 77.9174 279.778 77.757L279.68 79.7546ZM299.479 77.1692C302.588 76.1238 305.642 74.7527 308.638 73.0257L307.639 71.293C304.756 72.9545 301.824 74.2707 298.842 75.2736L299.479 77.1692ZM316.842 67.2619C319.271 65.2289 321.656 62.9254 323.996 60.3342L322.511 58.994C320.23 61.5209 317.912 63.7589 315.558 65.728L316.842 67.2619ZM330.206 52.6181C331.191 51.2543 332.168 49.8327 333.135 48.3517L331.461 47.2579C330.51 48.7137 329.551 50.1095 328.585 51.447L330.206 52.6181Z" fill="black"/>
</svg>
