<svg width="129" height="129" viewBox="0 0 129 129" fill="none" xmlns="http://www.w3.org/2000/svg">
<g filter="url(#filter0_d_20_331)">
<rect x="40" y="30" width="49" height="49" rx="24.5" fill="#A2D9AB"/>
</g>
<path d="M70.6667 62.5V60.8333C70.6667 59.9493 70.3155 59.1014 69.6903 58.4763C69.0652 57.8512 68.2174 57.5 67.3333 57.5H60.6667C59.7826 57.5 58.9348 57.8512 58.3096 58.4763C57.6845 59.1014 57.3333 59.9493 57.3333 60.8333V62.5" stroke="#181818" stroke-width="2" stroke-linecap="round" stroke-linejoin="round"/>
<path d="M64 54.1667C65.841 54.1667 67.3333 52.6743 67.3333 50.8333C67.3333 48.9924 65.841 47.5 64 47.5C62.1591 47.5 60.6667 48.9924 60.6667 50.8333C60.6667 52.6743 62.1591 54.1667 64 54.1667Z" stroke="#181818" stroke-width="2" stroke-linecap="round" stroke-linejoin="round"/>
<defs>
<filter id="filter0_d_20_331" x="0" y="0" width="129" height="129" filterUnits="userSpaceOnUse" color-interpolation-filters="sRGB">
<feFlood flood-opacity="0" result="BackgroundImageFix"/>
<feColorMatrix in="SourceAlpha" type="matrix" values="0 0 0 0 0 0 0 0 0 0 0 0 0 0 0 0 0 0 127 0" result="hardAlpha"/>
<feOffset dy="10"/>
<feGaussianBlur stdDeviation="20"/>
<feComposite in2="hardAlpha" operator="out"/>
<feColorMatrix type="matrix" values="0 0 0 0 0.117647 0 0 0 0 0.117647 0 0 0 0 0.117647 0 0 0 0.25 0"/>
<feBlend mode="normal" in2="BackgroundImageFix" result="effect1_dropShadow_20_331"/>
<feBlend mode="normal" in="SourceGraphic" in2="effect1_dropShadow_20_331" result="shape"/>
</filter>
</defs>
</svg>
